<?xml version="1.0"?>
<svg xmlns="http://www.w3.org/2000/svg" xmlns:xlink="http://www.w3.org/1999/xlink" id="Gradient" viewBox="0 0 512 512" width="512" height="512"><defs><linearGradient id="linear-gradient" x1="256" y1="496" x2="256" y2="16" gradientUnits="userSpaceOnUse"><stop offset="0" stop-color="#12c2e9"/><stop offset="0.5" stop-color="#c471ed"/><stop offset="1" stop-color="#f64f59"/></linearGradient></defs><path d="M496,456v32a8,8,0,0,1-16,0v-8H40a8,8,0,0,1-8-8V32H24a8,8,0,0,1,0-16H56a8,8,0,0,1,0,16H48V464H480v-8a8,8,0,0,1,16,0ZM71.987,144h.022c43.142.01,68.915,29.2,93.667,57.771,3.724-11.795,7.232-24.071,10.632-35.969,7.956-27.846,16.183-56.64,26.469-78.241C215.454,60.94,230.246,48,248,48s32.542,12.939,45.216,39.559c10.285,21.6,18.511,50.392,26.466,78.237,1.193,4.176,2.4,8.4,3.624,12.631C336.2,156.208,349.994,133.9,368.6,115.778,393.315,91.7,421.905,80,456,80a8,8,0,0,1,0,16c-29.718,0-54.656,10.219-76.237,31.24-19.514,19.007-33.87,43.975-47.755,68.122-.8,1.4-1.6,2.78-2.4,4.164C341.617,238.015,355.838,272,375.99,272H384V184a8,8,0,0,1,8-8h24V152a8,8,0,0,1,8-8h32a8,8,0,0,1,8,8V440a8,8,0,0,1-8,8H72a8,8,0,0,1-8-8V216a8,8,0,0,1,8-8h32a8,8,0,0,1,8,8v56h8c16.586,0,29.154-23.021,39.777-52.625-1.8-2.059-3.587-4.117-5.338-6.138C130.729,185.859,108.333,160,71.987,160h0a8,8,0,0,1,0-16ZM80,432H96V224H80Zm32,0h16V336H112Zm64,0h16V296H176Zm64,0h16V128H240Zm144-32H368v32h16Zm-32-56H336v88h16Zm-32-24H304V432h16Zm-32-32H272V432h16Zm-64,80H208v64h16Zm-64,32H144v32h16Zm272,32h16V160H432Zm-32,0h16V192H400ZM165.223,248.439C152.546,275.06,137.754,288,120,288h-8v32h24a8,8,0,0,1,8,8v56h16V288a8,8,0,0,1,8-8h32a8,8,0,0,1,8,8v64h16V120a8,8,0,0,1,8-8h32a8,8,0,0,1,8,8V272h24a8,8,0,0,1,8,8v24h24a8,8,0,0,1,8,8v16h24a8,8,0,0,1,8,8v48h16V288h-8.01c-17.755,0-32.547-12.941-45.224-39.563-10.286-21.6-18.513-50.4-26.469-78.246C290.077,120.416,273.959,64,248,64s-42.085,56.419-56.308,106.2C183.736,198.044,175.509,226.838,165.223,248.439Z" style="fill:url(#linear-gradient)"/></svg>
